<svg width="500" height="500" viewBox="0 0 500 500" fill="none" xmlns="http://www.w3.org/2000/svg">
<path d="M28.1094 451.617C25.1875 454.289 23.5235 457.938 23.4454 461.883C23.3594 465.812 24.875 469.523 27.6954 472.313C33.3125 477.852 42.2266 478.008 48.0469 472.719L122.031 390.898L109.109 377.977L28.1094 451.617Z" fill="#603A0D"/>
<path d="M81.6719 328.438L179.414 426.18C189.469 413.797 194.93 398.656 194.93 382.813C194.93 364.414 187.562 346.961 174.18 333.664C148.484 308.133 109.211 306.406 81.6719 328.438V328.438Z" fill="#603A0D"/>
<path d="M375.227 312.977C357.469 312.977 339.688 319.875 325.82 333.664C312.336 347.07 304.914 364.586 304.906 382.992C304.906 398.766 310.383 413.883 320.461 426.289L418.406 328.234C405.703 318.062 390.469 312.977 375.227 312.977Z" fill="#603A0D"/>
<path d="M390.828 377.953L377.93 390.859L452.422 473.242C457.687 478.016 466.625 477.859 472.211 472.312C475.039 469.516 476.555 465.812 476.477 461.875C476.391 457.937 474.734 454.281 471.797 451.602L390.828 377.953Z" fill="#603A0D"/>
<path d="M314.805 322.586C316.695 320.703 318.664 318.969 320.664 317.297L260.898 256L489.891 21.0781L478.703 10.1719L249.992 244.813L21.2188 10.1719L10.0312 21.0781L239.078 256L179.328 317.297C181.336 318.969 183.305 320.703 185.195 322.578C187.047 324.414 188.766 326.336 190.422 328.297L249.992 267.188L309.578 328.297C311.234 326.344 312.953 324.422 314.805 322.586V322.586Z" fill="#603A0D"/>
</svg>
