<svg width="500" height="500" viewBox="0 0 500 500" fill="none" xmlns="http://www.w3.org/2000/svg">
<g clip-path="url(#clip0)">
<path d="M250.003 63.7464C245.103 67.4712 177.912 117.461 91.7411 134.715C80.3812 333.564 249.895 436.513 250.003 436.454C250.11 436.513 419.625 333.565 408.265 134.71C322.089 117.461 250.003 63.7464 250.003 63.7464Z" fill="#4554DD"/>
<path d="M464.291 102.671C463.948 96.6322 459.565 91.5892 453.631 90.3964C348.548 69.3626 258.83 3.29176 257.944 2.63214C253.198 -0.905107 246.68 -0.876657 241.963 2.71644C238.425 5.40757 154.101 68.841 46.3753 90.4028C40.4398 91.5903 36.0585 96.6385 35.7108 102.678C27.079 253.781 97.9747 362.48 158.972 427.053C181.862 451.293 203.342 469.211 217.332 479.97C225.358 486.14 231.84 490.672 235.861 493.387C243.371 498.466 245.532 499.92 249.675 499.995C249.848 500.001 250.017 500.001 250.182 500.001C254.27 500.001 256.737 498.352 263.241 493.993C266.764 491.628 272.47 487.692 279.578 482.314C291.962 472.965 311.11 457.403 332.03 436.341C371.333 396.776 402.624 352.72 425.018 305.405C455.131 241.803 468.345 173.594 464.291 102.671ZM347.888 378.676C307.537 429.275 265.834 460.099 250.003 470.864C234.174 460.099 192.472 429.281 152.105 378.651C88.9614 299.451 58.6013 210.559 61.7898 114.287C152.743 93.7461 226.315 46.233 250.072 29.6236C274.15 46.2087 348.99 94.0338 438.214 114.279C441.403 210.564 411.045 299.47 347.888 378.676Z" fill="#4554DD"/>
</g>
<defs>
<clipPath id="clip0">
<rect width="500" height="500" fill="white"/>
</clipPath>
</defs>
</svg>
