<svg width="500" height="500" viewBox="0 0 500 500" fill="none" xmlns="http://www.w3.org/2000/svg">
<path d="M329.775 326.955C306.481 350.25 309.393 397.255 309.393 397.255H191.256C191.256 397.255 193.752 350.25 170.873 326.955C145.499 304.492 129.276 272.047 129.276 235.857C129.276 169.301 183.353 115.225 249.908 115.225C316.464 115.225 370.541 169.301 370.541 235.857C370.541 272.047 354.734 304.492 329.775 326.955Z" fill="#FCDB45"/>
<path d="M312.72 434.276C312.72 440.516 307.729 445.508 301.489 445.508H198.744C192.504 445.508 187.512 440.516 187.512 434.276C187.512 428.037 192.504 423.045 198.744 423.045H301.073C307.313 423.045 312.72 428.037 312.72 434.276Z" fill="#E5E5E5"/>
<path d="M297.33 480.865C297.33 487.105 292.338 492.097 286.098 492.097H214.135C207.895 492.097 202.904 487.105 202.904 480.865C202.904 474.626 207.895 469.634 214.135 469.634H286.098C292.338 469.634 297.33 474.626 297.33 480.865Z" fill="#E5E5E5"/>
<path d="M336.015 331.115C363.053 306.572 378.444 272.047 378.444 235.857C378.444 165.141 320.624 107.321 249.909 107.321C179.193 107.321 121.373 165.141 121.373 235.857C121.373 272.879 137.596 308.236 165.05 332.363C185.433 352.745 183.353 396.007 183.353 396.423C183.353 398.503 184.185 400.582 185.433 402.246C187.097 403.91 189.176 404.742 191.256 404.742H308.977C311.057 404.742 313.137 403.91 314.8 402.246C316.464 400.582 316.88 398.503 316.88 396.423C316.88 396.007 314.8 352.745 335.183 332.363C335.599 331.947 336.015 331.531 336.015 331.115ZM324.368 320.716C323.536 321.132 323.12 321.963 322.704 322.795C304.401 342.346 301.489 374.376 301.073 389.351H199.16C198.744 373.96 195.416 340.682 175.865 321.131C151.323 299.501 137.18 268.719 137.18 236.273C137.18 173.877 187.929 123.544 249.909 123.544C312.305 123.544 362.637 174.293 362.637 236.273C362.637 268.303 348.91 299.501 324.368 320.716Z" fill="#FCDB45"/>
<path d="M249.909 140.599C245.749 140.599 242.005 143.927 242.005 148.503C242.005 152.662 245.333 156.406 249.909 156.406C296.498 156.406 334.351 194.26 334.351 240.849C334.351 245.008 337.679 248.752 342.255 248.752C346.414 248.752 350.158 245.424 350.158 240.849C350.158 185.524 305.233 140.599 249.909 140.599Z" fill="#FFE363"/>
<path d="M320.624 434.276C320.624 423.461 311.889 415.141 301.489 415.141H198.744C187.929 415.141 179.609 423.877 179.609 434.276C179.609 445.092 188.345 453.411 198.744 453.411H301.073C311.889 453.411 320.624 445.092 320.624 434.276ZM301.073 437.604H198.744C196.664 437.604 195.416 435.94 195.416 434.276C195.416 432.196 197.08 430.948 198.744 430.948H301.073C303.153 430.948 304.401 432.612 304.401 434.276C304.817 436.356 303.153 437.604 301.073 437.604Z" fill="#FCDB45"/>
<path d="M286.098 461.73H214.135C203.319 461.73 195 470.466 195 480.865C195 491.681 203.735 500 214.135 500H286.098C296.913 500 305.233 491.265 305.233 480.865C305.233 470.466 296.498 461.73 286.098 461.73ZM286.098 484.193H214.135C212.055 484.193 210.807 482.529 210.807 480.865C210.807 478.785 212.471 477.537 214.135 477.537H286.098C288.178 477.537 289.426 479.201 289.426 480.865C289.426 482.945 288.178 484.193 286.098 484.193Z" fill="#FCDB45"/>
<path d="M257.812 61.1481V7.90349C257.812 3.74376 254.484 0 249.909 0C245.749 0 242.005 3.32779 242.005 7.90349V61.5641C242.005 65.7238 245.333 69.4676 249.909 69.4676C254.484 69.0516 257.812 65.7238 257.812 61.1481Z" fill="#FCDB45"/>
<path d="M380.94 39.5175C377.196 37.0216 372.621 38.2695 370.125 41.5973L340.591 86.1065C338.095 89.8502 339.343 94.4259 342.671 96.9218C343.919 97.7537 345.582 98.1697 346.83 98.1697C349.326 98.1697 351.822 96.9218 353.486 94.8419L383.02 50.3328C385.516 47.005 384.268 42.0133 380.94 39.5175Z" fill="#FCDB45"/>
<path d="M155.899 96.5058C157.147 96.5058 158.811 96.0898 160.058 95.2579C163.802 92.7621 164.634 88.1863 162.554 84.4426L133.852 39.5175C131.356 35.7737 126.781 34.9418 123.037 37.0216C119.293 39.5175 118.461 44.0932 120.541 47.8369L149.243 92.7621C150.907 95.2579 153.403 96.5058 155.899 96.5058Z" fill="#FCDB45"/>
<path d="M45.6656 133.943L92.6706 159.318C93.9186 160.15 95.1665 160.15 96.4144 160.15C99.3262 160.15 101.822 158.486 103.486 155.99C105.566 152.246 104.318 147.255 100.158 145.175L53.1532 119.8C49.4094 117.72 44.4177 118.968 42.3379 123.128C40.674 127.288 41.9219 131.864 45.6656 133.943Z" fill="#FCDB45"/>
<path d="M403.403 160.566C404.651 160.566 405.899 160.15 407.147 159.734L454.152 134.359C457.895 132.28 459.559 127.704 457.479 123.544C455.4 119.8 450.824 118.136 446.664 120.216L399.659 145.591C395.915 147.671 394.251 152.246 396.331 156.406C397.579 158.902 400.491 160.566 403.403 160.566Z" fill="#FCDB45"/>
</svg>
