<svg width="500" height="500" viewBox="0 0 500 500" fill="none" xmlns="http://www.w3.org/2000/svg">
<path d="M395.09 7.24256C392.776 2.81077 388.19 0 383.188 0H186.922C180.987 0 175.756 3.92837 174.058 9.61367L103.948 244.559C102.735 248.623 103.513 252.998 106.047 256.398C108.581 259.799 112.573 261.779 116.812 261.779H226.858L182.525 483.922C181.235 490.383 184.823 496.839 190.995 499.143C192.533 499.716 194.121 500 195.687 500C200.395 500 204.909 497.516 207.356 493.221L380.248 189.61C382.614 185.454 382.59 180.326 380.187 176.191C377.784 172.056 373.364 169.485 368.582 169.485H290.733L394.199 21.1185C397.06 17.0157 397.404 11.6777 395.09 7.24256Z" fill="#C25FFF"/>
</svg>
