<svg width="500" height="500" viewBox="0 0 500 500" fill="none" xmlns="http://www.w3.org/2000/svg">
<path d="M420.288 280.35L431.56 267.697L493.561 198.078C498.203 192.864 500.5 185.97 499.908 179.016C499.321 172.062 495.895 165.653 490.44 161.297C479.301 153.023 463.654 154.785 454.636 165.333L399.227 227.543C397.736 229.221 395.634 230.24 393.391 230.37C391.144 230.499 388.943 229.733 387.264 228.237L336.636 183.144L304.993 154.968C303.314 153.473 301.109 152.706 298.866 152.836C296.619 152.966 294.521 153.984 293.026 155.663L264.847 187.298L29.0756 452.026C19.638 462.204 19.6952 477.951 29.2015 488.06C34.1529 492.981 40.9126 495.655 47.8897 495.445C54.8667 495.236 61.4547 492.169 66.101 486.958L297.176 227.451C298.672 225.769 300.774 224.754 303.017 224.625C305.26 224.495 307.465 225.258 309.143 226.753L359.772 271.847L372.433 283.119C386.414 295.567 407.837 294.327 420.288 280.35V280.35Z" fill="#64CA74"/>
<path d="M73.0665 175.331C84.2093 183.605 99.8533 181.843 108.871 171.295L164.28 109.085C165.775 107.407 167.873 106.388 170.12 106.259C172.363 106.129 174.568 106.896 176.246 108.391L233.204 159.119C234.882 160.614 237.087 161.381 239.33 161.251C241.573 161.122 243.675 160.103 245.17 158.425L267.711 133.11C269.207 131.432 269.974 129.227 269.844 126.984C269.714 124.741 268.696 122.639 267.017 121.144L203.739 64.7891L191.074 53.509C177.097 41.0616 155.67 42.3014 143.219 56.2785L131.95 68.9395L69.9499 138.55C65.3036 143.765 63.0072 150.658 63.5985 157.612C64.1897 164.566 67.6115 170.975 73.0665 175.331V175.331Z" fill="#64CA74"/>
<path d="M267.891 452.076C258.453 462.253 258.51 478.001 268.016 488.109C272.972 493.023 279.731 495.685 286.708 495.468C293.685 495.247 300.266 492.172 304.905 486.957L366.951 417.354L378.219 404.705C384.201 397.991 387.268 389.175 386.749 380.199C386.23 371.22 382.164 362.82 375.45 356.838L362.796 345.57L299.507 289.204C297.828 287.708 295.623 286.941 293.38 287.071C291.137 287.205 289.035 288.219 287.544 289.898L264.999 315.212C263.504 316.891 262.737 319.096 262.867 321.339C263 323.582 264.015 325.684 265.693 327.179L322.65 377.899C324.329 379.394 325.344 381.496 325.473 383.739C325.603 385.982 324.836 388.187 323.337 389.866L267.891 452.076Z" fill="#64CA74"/>
<path d="M327.789 122.33C355.747 147.236 398.601 144.757 423.507 116.795C448.41 88.837 445.934 45.9827 417.972 21.0765C390.014 -3.8258 347.156 -1.35006 322.254 26.6117C310.295 40.0394 304.157 57.6671 305.195 75.6191C306.232 93.5672 314.361 110.371 327.789 122.33Z" fill="#64CA74"/>
<path d="M8.47626 232.719H76.2711C80.9517 232.719 84.7473 228.928 84.7473 224.247C84.7473 219.566 80.9517 215.771 76.2711 215.771H8.47626C3.79562 215.771 0 219.566 0 224.247C0 228.928 3.79562 232.719 8.47626 232.719V232.719Z" fill="#64CA74"/>
<path d="M33.8975 258.144C33.8975 262.825 37.6931 266.621 42.3737 266.621H110.169C114.849 266.621 118.645 262.825 118.645 258.144C118.645 253.464 114.849 249.668 110.169 249.668H42.3737C37.6931 249.668 33.8975 253.464 33.8975 258.144Z" fill="#64CA74"/>
</svg>
