<svg width="500" height="500" viewBox="0 0 500 500" fill="none" xmlns="http://www.w3.org/2000/svg">
<path d="M481.916 197.287C481.916 197.635 481.916 197.983 481.569 198.261C481.221 198.539 467.049 232.205 473.649 289.242C474.274 294.528 488.03 418.549 437.939 471.69C435.091 476.142 418.834 500 399.172 500C395.908 500.004 392.674 499.366 389.655 498.122L374.718 495.131C357.841 491.691 340.668 489.921 323.446 489.845C310.315 489.845 297.323 489.288 284.61 488.175C233.72 483.192 185.654 462.425 147.12 428.773L146.495 428.217C130.656 414.994 111.03 407.154 90.45 405.829C69.8701 404.504 49.4021 409.762 32.0019 420.844L25.6797 424.739C24.6271 425.398 23.4174 425.762 22.1765 425.794C20.9356 425.826 19.7088 425.525 18.6236 424.921C17.5385 424.318 16.6347 423.434 16.0063 422.362C15.3779 421.29 15.0477 420.07 15.0502 418.827V156.874C14.9833 156.32 14.9833 155.759 15.0502 155.205C16.6814 148.747 20.5723 143.09 26.016 139.261C31.4597 135.432 38.0948 133.685 44.7156 134.338C52.2188 133.712 122.11 129.121 159.973 164.456C161.571 165.986 194.71 199.235 207.632 232.483C208.258 233.318 210.967 236.309 218.887 234.152C219.929 234.152 281.414 221.841 325.947 290.702C330.602 265.175 342.343 220.658 371.313 184.836C359.977 183.287 349.271 178.696 340.328 171.551C325.921 158.917 317.02 141.143 315.526 122.026L303.576 121.609C299.968 121.484 296.424 120.609 293.171 119.041C289.918 117.472 287.026 115.244 284.679 112.497C282.334 109.791 280.584 106.622 279.542 103.194C278.501 99.7668 278.192 96.1583 278.635 92.6034C280.927 71.5068 285.924 50.7938 293.502 30.9757C296.081 24.1544 301.231 18.6195 307.845 15.5623C314.458 12.5051 322.007 12.1703 328.865 14.6298C356.399 24.1616 385.493 28.3634 414.596 27.011C422.18 26.8042 429.573 29.4093 435.356 34.3261C441.139 39.243 444.904 46.1251 445.929 53.6514C448.846 75.4923 455.794 115.21 469.48 136.007C475.925 144.678 480.38 154.666 482.53 165.257C484.679 175.849 484.47 186.785 481.916 197.287V197.287Z" fill="#E75252"/>
</svg>
